<svg width="14" height="15" viewBox="0 0 14 15" fill="none" xmlns="http://www.w3.org/2000/svg">
<path fill-rule="evenodd" clip-rule="evenodd" d="M9.33325 7.4993C9.33325 6.21438 8.28503 5.16597 6.9999 5.16597C5.71477 5.16597 4.66657 6.21438 4.66657 7.4993C4.66657 8.78459 5.71477 9.833 6.9999 9.833C8.28503 9.833 9.33325 8.78459 9.33325 7.4993ZM6.9999 2.54107C9.73432 2.54107 11.9582 4.76538 11.9582 7.4993C11.9582 10.2336 9.73432 12.4579 6.9999 12.4579C4.26549 12.4579 2.04156 10.2336 2.04156 7.4993C2.04156 4.76538 4.26549 2.54107 6.9999 2.54107ZM13.9999 7.4993C13.9999 3.63493 10.8645 0.499672 6.9999 0.499672C3.13538 0.499672 -0.000120044 3.63493 -0.000120044 7.4993C-0.000120044 11.364 3.13538 14.4997 6.9999 14.4997C10.8645 14.4997 13.9999 11.364 13.9999 7.4993Z" fill="#5A5A5A"/>
</svg>
